<?xml version="1.0" encoding="UTF-8"?>
<svg xmlns="http://www.w3.org/2000/svg" xmlns:xlink="http://www.w3.org/1999/xlink" width="80px" height="80px" viewBox="0 0 80 80" version="1.1">
<g id="surface1">
<rect x="0" y="0" width="80" height="80" style="fill:rgb(0%,0%,0%);fill-opacity:1;stroke:none;"/>
<path style=" stroke:none;fill-rule:nonzero;fill:rgb(100%,100%,100%);fill-opacity:1;" d="M 35.941406 32.914062 C 37.476562 31.300781 38.308594 29.140625 38.308594 26.902344 L 20.59375 26.902344 L 20.777344 27.710938 C 21.140625 29.269531 22.519531 30.390625 24.132812 30.390625 L 33.546875 30.390625 L 22.960938 41.730469 C 21.425781 43.34375 20.59375 45.503906 20.59375 47.714844 L 34.769531 47.714844 C 36.359375 47.714844 37.761719 46.621094 38.125 45.0625 L 38.308594 44.253906 L 25.40625 44.253906 Z M 35.941406 32.914062 "/>
<path style=" stroke:none;fill-rule:nonzero;fill:rgb(100%,100%,100%);fill-opacity:1;" d="M 57.871094 26.902344 L 52.640625 26.902344 C 49.675781 26.902344 47.257812 29.324219 47.257812 32.3125 L 47.257812 47.714844 L 48.0625 47.53125 C 49.625 47.167969 50.714844 45.738281 50.714844 44.074219 L 50.714844 32.992188 C 50.714844 31.558594 51.886719 30.390625 53.316406 30.390625 L 54.304688 30.390625 C 55.917969 30.390625 57.324219 29.269531 57.6875 27.710938 Z M 48.375 26.902344 L 43.667969 26.902344 C 43.535156 26.902344 43.40625 26.929688 43.277344 26.929688 C 41.820312 27.113281 40.625 28.152344 40.3125 29.582031 L 40.128906 30.390625 L 44.835938 30.390625 C 44.96875 30.390625 45.097656 30.390625 45.226562 30.363281 C 46.660156 30.207031 47.855469 29.140625 48.191406 27.710938 Z M 48.375 26.902344 "/>
<path style=" stroke:none;fill-rule:nonzero;fill:rgb(100%,100%,100%);fill-opacity:1;" d="M 23.503906 41.332031 L 24.28125 41.332031 L 24.28125 41.65625 L 22.929688 41.65625 L 23.761719 39.894531 L 23.027344 39.894531 L 23.027344 39.570312 L 24.320312 39.570312 Z M 23.503906 41.332031 "/>
<path style=" stroke:none;fill-rule:nonzero;fill:rgb(100%,100%,100%);fill-opacity:1;" d="M 26.804688 41.691406 C 26.617188 41.691406 26.457031 41.648438 26.328125 41.558594 C 26.199219 41.46875 26.101562 41.34375 26.035156 41.183594 C 25.964844 41.023438 25.933594 40.832031 25.933594 40.613281 C 25.933594 40.398438 25.964844 40.207031 26.035156 40.046875 C 26.101562 39.882812 26.199219 39.757812 26.328125 39.671875 C 26.453125 39.582031 26.609375 39.539062 26.792969 39.539062 C 26.984375 39.539062 27.144531 39.582031 27.273438 39.671875 C 27.402344 39.761719 27.5 39.886719 27.566406 40.046875 C 27.632812 40.207031 27.667969 40.398438 27.667969 40.613281 C 27.667969 40.832031 27.632812 41.023438 27.5625 41.183594 C 27.496094 41.34375 27.398438 41.46875 27.269531 41.558594 C 27.140625 41.648438 26.984375 41.691406 26.804688 41.691406 Z M 26.804688 41.371094 C 26.890625 41.371094 26.972656 41.34375 27.039062 41.289062 C 27.109375 41.230469 27.167969 41.144531 27.207031 41.027344 C 27.246094 40.914062 27.265625 40.773438 27.265625 40.605469 C 27.265625 40.359375 27.226562 40.171875 27.144531 40.042969 C 27.0625 39.914062 26.945312 39.847656 26.792969 39.847656 C 26.648438 39.847656 26.535156 39.914062 26.453125 40.042969 C 26.375 40.171875 26.332031 40.359375 26.332031 40.609375 C 26.332031 40.777344 26.351562 40.917969 26.390625 41.03125 C 26.429688 41.144531 26.484375 41.230469 26.554688 41.289062 C 26.625 41.34375 26.707031 41.371094 26.804688 41.371094 Z M 26.804688 41.371094 "/>
<path style=" stroke:none;fill-rule:nonzero;fill:rgb(100%,100%,100%);fill-opacity:1;" d="M 30.902344 39.570312 L 30.902344 41.65625 L 30.515625 41.65625 L 30.515625 40.773438 L 29.832031 40.773438 L 29.832031 41.65625 L 29.445312 41.65625 L 29.445312 39.570312 L 29.832031 39.570312 L 29.832031 40.441406 L 30.515625 40.441406 L 30.515625 39.570312 Z M 30.902344 39.570312 "/>
<path style=" stroke:none;fill-rule:nonzero;fill:rgb(100%,100%,100%);fill-opacity:1;" d="M 33.789062 41.355469 L 33.042969 41.355469 L 32.933594 41.65625 L 32.515625 41.65625 L 33.398438 39.539062 L 33.425781 39.539062 L 34.3125 41.65625 L 33.902344 41.65625 Z M 33.675781 41.066406 L 33.460938 40.496094 L 33.410156 40.328125 L 33.359375 40.496094 L 33.152344 41.066406 Z M 33.675781 41.066406 "/>
<path style=" stroke:none;fill-rule:nonzero;fill:rgb(100%,100%,100%);fill-opacity:1;" d="M 39.050781 39.910156 L 38.574219 39.910156 L 38.574219 41.65625 L 38.1875 41.65625 L 38.1875 39.910156 L 37.707031 39.910156 L 37.707031 39.570312 L 39.050781 39.570312 Z M 39.050781 39.910156 "/>
<path style=" stroke:none;fill-rule:nonzero;fill:rgb(100%,100%,100%);fill-opacity:1;" d="M 41.738281 41.355469 L 40.996094 41.355469 L 40.886719 41.65625 L 40.46875 41.65625 L 41.347656 39.539062 L 41.378906 39.539062 L 42.261719 41.65625 L 41.855469 41.65625 Z M 41.628906 41.066406 L 41.414062 40.496094 L 41.363281 40.328125 L 41.3125 40.496094 L 41.105469 41.066406 Z M 41.628906 41.066406 "/>
<path style=" stroke:none;fill-rule:nonzero;fill:rgb(100%,100%,100%);fill-opacity:1;" d="M 44.289062 41.332031 L 45.066406 41.332031 L 45.066406 41.65625 L 43.714844 41.65625 L 44.542969 39.894531 L 43.8125 39.894531 L 43.8125 39.570312 L 45.105469 39.570312 Z M 44.289062 41.332031 "/>
<path style=" stroke:none;fill-rule:nonzero;fill:rgb(100%,100%,100%);fill-opacity:1;" d="M 48.59375 39.539062 L 48.59375 41.65625 L 48.222656 41.65625 L 48.222656 40.761719 L 48.238281 40.410156 L 48.128906 40.570312 L 47.722656 41.050781 L 47.3125 40.570312 L 47.203125 40.410156 L 47.222656 40.761719 L 47.222656 41.65625 L 46.851562 41.65625 L 46.851562 39.539062 L 46.878906 39.539062 L 47.722656 40.53125 L 48.5625 39.539062 Z M 48.59375 39.539062 "/>
<path style=" stroke:none;fill-rule:nonzero;fill:rgb(100%,100%,100%);fill-opacity:1;" d="M 51.644531 41.320312 L 51.644531 41.65625 L 50.5 41.65625 L 50.5 39.570312 L 51.585938 39.570312 L 51.585938 39.898438 L 50.871094 39.898438 L 50.871094 40.386719 L 51.4375 40.386719 L 51.4375 40.703125 L 50.871094 40.703125 L 50.871094 41.320312 Z M 51.644531 41.320312 "/>
<path style=" stroke:none;fill-rule:nonzero;fill:rgb(100%,100%,100%);fill-opacity:1;" d="M 54.902344 39.570312 L 54.902344 41.699219 L 54.871094 41.699219 L 53.875 40.558594 L 53.78125 40.4375 L 53.796875 40.730469 L 53.796875 41.65625 L 53.429688 41.65625 L 53.429688 39.539062 L 53.460938 39.539062 L 54.445312 40.683594 L 54.546875 40.820312 L 54.535156 40.535156 L 54.535156 39.570312 Z M 54.902344 39.570312 "/>
</g>
</svg>
